<svg id="图层_1" data-name="图层 1" xmlns="http://www.w3.org/2000/svg" viewBox="0 0 327.78 438.71"><defs><style>.cls-1{fill:#1b69cd;}.cls-2{fill:#02a6f8;}.cls-3{fill:#0186f5;}</style></defs><path class="cls-1" d="M363.81,113.38a56.33,56.33,0,0,0-38.12,53.28V396.48l56.61-20.36a56.34,56.34,0,0,0,37.3-53V94.33Z" transform="translate(-91.82 -36.29)"/><path class="cls-2" d="M185.71,114.85l-56,19.33a56.33,56.33,0,0,0-37.94,53.28V420.37l56.84-20.65a56.35,56.35,0,0,0,37.08-52.94Z" transform="translate(-91.82 -36.29)"/><path class="cls-3" d="M305.2,36.29,242.62,67.38a56.32,56.32,0,0,0-31.31,50.46V475L275,441.78a56.32,56.32,0,0,0,30.26-49.93Z" transform="translate(-91.82 -36.29)"/></svg>